<?xml version="1.0" standalone="no"?>
<!DOCTYPE svg PUBLIC "-//W3C//DTD SVG 20010904//EN"
 "http://www.w3.org/TR/2001/REC-SVG-20010904/DTD/svg10.dtd">
<svg version="1.0" xmlns="http://www.w3.org/2000/svg"
 width="514.000000pt" height="514.000000pt" viewBox="0 0 514.000000 514.000000"
 preserveAspectRatio="xMidYMid meet">
<metadata>
Created by potrace 1.11, written by Peter Selinger 2001-2013
</metadata>
<g transform="translate(0.000000,514.000000) scale(0.100000,-0.100000)"
fill="#000000" stroke="none">
<path d="M2310 5105 c-8 -2 -51 -9 -95 -15 -571 -84 -1054 -327 -1460 -735
-269 -271 -458 -577 -597 -964 -44 -123 -67 -217 -99 -396 -26 -147 -28 -181
-28 -416 -1 -141 3 -280 8 -310 6 -30 15 -88 21 -129 65 -445 324 -967 648
-1303 179 -187 337 -316 527 -432 413 -251 857 -375 1341 -375 226 0 323 11
570 66 235 52 548 179 724 292 213 137 315 215 445 340 444 429 705 952 780
1562 47 389 -16 853 -169 1228 -184 452 -489 840 -876 1116 -355 254 -689 388
-1129 456 -108 16 -178 20 -365 19 -127 -1 -238 -3 -246 -4z m-942 -1762 c26
-59 125 -267 324 -686 29 -59 56 -106 61 -104 6 2 100 195 211 430 l201 427
288 0 287 0 0 -827 0 -828 -173 -3 c-94 -2 -200 -1 -234 3 l-63 7 0 449 c0
247 -3 449 -7 449 -5 0 -34 -60 -65 -133 -31 -72 -104 -238 -162 -367 l-106
-235 -178 -3 -179 -2 -164 370 c-90 203 -167 370 -171 370 -5 0 -8 -202 -8
-449 0 -377 -2 -450 -14 -454 -20 -8 -350 -9 -407 -1 l-49 7 0 823 0 824 288
0 289 0 31 -67z m3022 -138 l0 -205 -430 0 -430 0 0 -105 0 -105 390 0 390 0
0 -205 0 -205 -390 0 -391 0 3 -107 3 -108 438 -3 437 -2 0 -206 0 -205 -692
2 c-381 1 -701 4 -710 7 -17 4 -18 52 -18 828 l0 824 700 0 700 0 0 -205z"/>
</g>
</svg>
